<?xml version="1.0" encoding="UTF-8" standalone="no"?>
<!-- Created with Inkscape (http://www.inkscape.org/) -->

<svg
   width="50mm"
   height="50mm"
   viewBox="0 0 50 50"
   version="1.1"
   id="svg119275"
   xml:space="preserve"
   inkscape:version="1.2.1 (9c6d41e4, 2022-07-14)"
   sodipodi:docname="i_adaption.svg"
   xmlns:inkscape="http://www.inkscape.org/namespaces/inkscape"
   xmlns:sodipodi="http://sodipodi.sourceforge.net/DTD/sodipodi-0.dtd"
   xmlns="http://www.w3.org/2000/svg"
   xmlns:svg="http://www.w3.org/2000/svg"><sodipodi:namedview
     id="namedview119277"
     pagecolor="#ffffff"
     bordercolor="#000000"
     borderopacity="0.25"
     inkscape:showpageshadow="2"
     inkscape:pageopacity="0.0"
     inkscape:pagecheckerboard="0"
     inkscape:deskcolor="#d1d1d1"
     inkscape:document-units="mm"
     showgrid="false"
     inkscape:zoom="2.6964733"
     inkscape:cx="99.945361"
     inkscape:cy="93.455403"
     inkscape:window-width="1133"
     inkscape:window-height="892"
     inkscape:window-x="263"
     inkscape:window-y="95"
     inkscape:window-maximized="0"
     inkscape:current-layer="layer1" /><defs
     id="defs119272" /><g
     inkscape:label="Layer 1"
     inkscape:groupmode="layer"
     id="layer1"><path
       id="rect10239"
       style="fill:#ffffff;stroke:#000000;stroke-width:1;stroke-linecap:round;stroke-linejoin:round;stroke-miterlimit:0;stroke-dasharray:none;paint-order:fill markers stroke"
       d="M 22.238953 2.0469035 L 22.238953 7.6899699 A 17.586315 17.586315 0 0 0 14.918986 10.719242 L 10.930599 6.7308553 L 6.9174072 10.744564 L 10.891325 14.718481 A 17.586315 17.586315 0 0 0 7.8005575 22.052917 L 2.2329386 22.052917 L 2.2329386 27.72854 L 7.7478475 27.72854 A 17.586315 17.586315 0 0 0 10.772986 35.181315 L 6.9174072 39.036894 L 10.930599 43.050085 L 14.758272 39.222412 A 17.586315 17.586315 0 0 0 22.238953 42.37054 L 22.238953 47.734037 L 27.914575 47.734037 L 27.914575 42.38811 A 17.586315 17.586315 0 0 0 35.435046 39.262203 L 39.222929 43.050085 L 43.236637 39.036894 L 39.434285 35.234542 A 17.586315 17.586315 0 0 0 42.498698 27.72854 L 47.920589 27.72854 L 47.920589 22.052917 L 42.454256 22.052917 A 17.586315 17.586315 0 0 0 39.323181 14.65802 L 43.236637 10.744564 L 39.222929 6.7308553 L 35.280017 10.673767 A 17.586315 17.586315 0 0 0 27.914575 7.667749 L 27.914575 2.0469035 L 22.238953 2.0469035 z " /><circle
       style="fill:#ffffff;stroke:#000000;stroke-width:1;stroke-linecap:round;stroke-linejoin:round;stroke-miterlimit:0;stroke-dasharray:none;paint-order:fill markers stroke"
       id="circle10302"
       cx="25.123306"
       cy="25.030258"
       r="13.399097" /><g
       id="g10395"><rect
         style="opacity:1;fill:#000000;stroke:none;stroke-width:4;stroke-linecap:round;stroke-linejoin:round;stroke-miterlimit:0;stroke-dasharray:none;paint-order:fill markers stroke"
         id="rect10361"
         width="14.813211"
         height="2.0814817"
         x="17.657904"
         y="16.617157" /><rect
         style="opacity:1;fill:#000000;stroke:none;stroke-width:4;stroke-linecap:round;stroke-linejoin:round;stroke-miterlimit:0;stroke-dasharray:none;paint-order:fill markers stroke"
         id="rect10363"
         width="3.3303709"
         height="4.6139512"
         x="27.683712"
         y="15.298887" /><rect
         style="opacity:1;fill:#000000;stroke:none;stroke-width:4;stroke-linecap:round;stroke-linejoin:round;stroke-miterlimit:0;stroke-dasharray:none;paint-order:fill markers stroke"
         id="rect10365"
         width="14.813211"
         height="2.0814817"
         x="17.657904"
         y="30.904665" /><rect
         style="opacity:1;fill:#000000;stroke:none;stroke-width:4;stroke-linecap:round;stroke-linejoin:round;stroke-miterlimit:0;stroke-dasharray:none;paint-order:fill markers stroke"
         id="rect10367"
         width="3.3303709"
         height="4.6139512"
         x="19.217037"
         y="29.586393" /><rect
         style="opacity:1;fill:#000000;stroke:none;stroke-width:4;stroke-linecap:round;stroke-linejoin:round;stroke-miterlimit:0;stroke-dasharray:none;paint-order:fill markers stroke"
         id="rect10369"
         width="14.813211"
         height="2.0814817"
         x="17.657904"
         y="24.025492" /><rect
         style="opacity:1;fill:#000000;stroke:none;stroke-width:4;stroke-linecap:round;stroke-linejoin:round;stroke-miterlimit:0;stroke-dasharray:none;paint-order:fill markers stroke"
         id="rect10371"
         width="3.3303709"
         height="4.6139512"
         x="23.450375"
         y="22.707222" /></g></g></svg>
