<svg xmlns="http://www.w3.org/2000/svg" xml:space="preserve" viewBox="0 0 50 50">
  <g paint-order="fill markers stroke">
    <path fill="#fff" stroke="#000" stroke-linecap="round" stroke-linejoin="round" stroke-miterlimit="0" d="M22 2v6l-7 3-4-4-4 4 4 4-3 7H2v6h6l3 7-4 4 4 4 4-4 7 3v6h6v-6l7-3 4 4 4-4-4-4 3-7h6v-6h-6l-3-7 4-4-4-4-4 4-7-3V2z"/>
      <circle cx="25.1" cy="25" r="13.4" fill="#fff" stroke="#000" stroke-linecap="round" stroke-linejoin="round" stroke-miterlimit="0"/>
      <path d="M18 17h15v2H18z"/>
      <path d="M28 15h3v5h-3zM18 31h15v2H18z"/>
      <path d="M19 30h3v5h-3zm-1-6h15v2H18z"/>
      <path d="M24 23h3v5h-3z"/>
  </g>
</svg>