<?xml version="1.0" encoding="UTF-8" standalone="no"?>
<!-- Created with Inkscape (http://www.inkscape.org/) -->

<svg
   width="50mm"
   height="50mm"
   viewBox="0 0 50 50"
   version="1.1"
   id="svg119275"
   xml:space="preserve"
   inkscape:version="1.2.1 (9c6d41e4, 2022-07-14)"
   sodipodi:docname="i_communication.svg"
   xmlns:inkscape="http://www.inkscape.org/namespaces/inkscape"
   xmlns:sodipodi="http://sodipodi.sourceforge.net/DTD/sodipodi-0.dtd"
   xmlns="http://www.w3.org/2000/svg"
   xmlns:svg="http://www.w3.org/2000/svg"><sodipodi:namedview
     id="namedview119277"
     pagecolor="#ffffff"
     bordercolor="#000000"
     borderopacity="0.25"
     inkscape:showpageshadow="2"
     inkscape:pageopacity="0.0"
     inkscape:pagecheckerboard="0"
     inkscape:deskcolor="#d1d1d1"
     inkscape:document-units="mm"
     showgrid="false"
     inkscape:zoom="1.686531"
     inkscape:cx="139.0428"
     inkscape:cy="112.65728"
     inkscape:window-width="1133"
     inkscape:window-height="892"
     inkscape:window-x="418"
     inkscape:window-y="127"
     inkscape:window-maximized="0"
     inkscape:current-layer="layer1" /><defs
     id="defs119272" /><g
     inkscape:label="Layer 1"
     inkscape:groupmode="layer"
     id="layer1"><path
       style="fill:#800080;stroke:#1a1a1a;stroke-width:4;stroke-linecap:round;stroke-linejoin:round;stroke-miterlimit:0;stroke-dasharray:none;paint-order:fill markers stroke"
       d="m 42.564348,40.710412 c -0.24848,3.223459 1.443046,3.890957 3.765125,5.726128 l -1.608022,0.156882 C 43.115152,46.346885 41.63789,45.843096 40.196936,45.22828 39.069943,44.747423 37.965159,44.198649 36.838221,43.651917 l 3.255264,-2.941504 z"
       id="path5880"
       sodipodi:nodetypes="cccsccc" /><ellipse
       style="fill:#000000;stroke:none;stroke-width:5;stroke-linecap:round;stroke-linejoin:round;stroke-miterlimit:0;stroke-dasharray:none;paint-order:fill markers stroke"
       id="ellipse5882"
       cx="-32.008858"
       cy="30.375683"
       rx="16.915915"
       ry="15.202156"
       transform="scale(-1,1)" /><ellipse
       style="fill:#ffffff;stroke:none;stroke-width:1.03004;stroke-linecap:round;stroke-linejoin:round;stroke-miterlimit:0;stroke-dasharray:none;paint-order:fill markers stroke"
       id="ellipse5884"
       cx="-32.008858"
       cy="30.375683"
       rx="15.163583"
       ry="13.627354"
       transform="scale(-1,1)" /><path
       id="path5886"
       style="stroke-width:3.78144;stroke-linecap:round;stroke-linejoin:round;stroke-miterlimit:0;paint-order:fill markers stroke"
       d="M 40.50793,34.669858 H 28.743232 v 1.760073 H 40.50793 Z m 0,-5.291666 H 23.833554 v 1.760073 H 40.50793 Z m 0,-5.291666 H 23.833554 v 1.760073 H 40.50793 Z" /><path
       style="fill:#ffffff;stroke:none;stroke-width:4;stroke-linecap:round;stroke-linejoin:round;stroke-miterlimit:0;stroke-dasharray:none;paint-order:fill markers stroke"
       d="m 42.838889,39.41615 c -0.248481,3.223459 1.168505,5.185219 3.490584,7.02039 -3.943896,0.371392 -7.881785,-1.878222 -11.295374,-3.529804 l 5.059386,-2.196323 z"
       id="path5888"
       sodipodi:nodetypes="ccccc" /><ellipse
       style="fill:none;stroke:#ffffff;stroke-width:4;stroke-linecap:round;stroke-linejoin:round;stroke-miterlimit:0;stroke-dasharray:none;paint-order:fill markers stroke;opacity:1"
       id="ellipse5688"
       cx="19.615322"
       cy="18.609669"
       rx="16.915915"
       ry="15.202156" /><path
       style="fill:#800080;stroke:#000000;stroke-width:4;stroke-linecap:round;stroke-linejoin:round;stroke-miterlimit:0;stroke-dasharray:none;paint-order:fill markers stroke"
       d="m 9.0598319,28.944397 c 0.2484803,3.223459 -1.443046,3.890957 -3.7651249,5.726128 l 1.6080219,0.156882 c 1.6062992,-0.246537 3.083561,-0.750326 4.5245151,-1.365142 1.126993,-0.480857 2.231777,-1.029631 3.358715,-1.576363 l -3.255264,-2.941504 z"
       id="path5860"
       sodipodi:nodetypes="cccsccc" /><ellipse
       style="fill:#000000;stroke:none;stroke-width:5;stroke-linecap:round;stroke-linejoin:round;stroke-miterlimit:0;stroke-dasharray:none;paint-order:fill markers stroke"
       id="circle3464"
       cx="19.615322"
       cy="18.609669"
       rx="16.915915"
       ry="15.202156" /><ellipse
       style="fill:#ffffff;stroke:none;stroke-width:1.03004;stroke-linecap:round;stroke-linejoin:round;stroke-miterlimit:0;stroke-dasharray:none;paint-order:fill markers stroke"
       id="ellipse5686"
       cx="19.615322"
       cy="18.609669"
       rx="15.163583"
       ry="13.627354" /><path
       id="rect5798"
       style="stroke-width:3.78144;stroke-linecap:round;stroke-linejoin:round;stroke-miterlimit:0;paint-order:fill markers stroke"
       d="m 11.11625,22.903843 h 11.764698 v 1.760073 H 11.11625 Z m 0,-5.291666 H 27.790626 V 19.37225 H 11.11625 Z m 0,-5.291666 h 16.674376 v 1.760073 H 11.11625 Z" /><path
       style="fill:#ffffff;stroke:none;stroke-width:4;stroke-linecap:round;stroke-linejoin:round;stroke-miterlimit:0;stroke-dasharray:none;paint-order:fill markers stroke"
       d="m 8.7852915,27.650135 c 0.2484803,3.223459 -1.1685056,5.185219 -3.4905845,7.02039 3.9438956,0.371392 7.881785,-1.878222 11.295374,-3.529804 l -5.059386,-2.196323 z"
       id="path5858"
       sodipodi:nodetypes="ccccc" /></g></svg>
