<svg xmlns="http://www.w3.org/2000/svg" xml:space="preserve" viewBox="0 0 50 50">
  <path fill="purple" stroke="#1a1a1a" stroke-linecap="round" stroke-linejoin="round" stroke-miterlimit="0" stroke-width="4" d="m42 40 4 6-6-1-6-2 6-2Z" paint-order="fill markers stroke"/>
  <ellipse cx="-32" cy="30.4" paint-order="fill markers stroke" rx="16.9" ry="15.2" transform="scale(-1,1)"/>
  <ellipse cx="-32" cy="30.4" fill="#fff" paint-order="fill markers stroke" rx="15.2" ry="13.6" transform="scale(-1,1)"/>
  <path d="M41 24H24v2h17zm0 5H24v2h17zm0 5H24v2h17Z" paint-order="fill markers stroke"/>
  <path fill="#fff" d="M43 39q0 6 3 7-6 1-11-3l5-2z" paint-order="fill markers stroke"/>
  <path fill="purple" stroke="#000" stroke-linecap="round" stroke-linejoin="round" stroke-miterlimit="0" stroke-width="4" d="M9 29q0 5-4 6h2l8-3-3-3z" paint-order="fill markers stroke"/>
  <ellipse cx="19.6" cy="18.6" paint-order="fill markers stroke" rx="16.9" ry="15.2"/>
  <ellipse cx="19.6" cy="18.6" fill="#fff" paint-order="fill markers stroke" rx="15.2" ry="13.6"/>
  <path d="M11 12h17v2H11Zm0 6h17v1H11Zm0 5h12v2H11Z" paint-order="fill markers stroke"/>
  <path fill="#fff" d="M9 28q0 4-4 7 6 0 12-4l-5-2z" paint-order="fill markers stroke"/>
</svg>