<?xml version="1.0" encoding="UTF-8" standalone="no"?>
<!-- Created with Inkscape (http://www.inkscape.org/) -->

<svg
   width="50mm"
   height="44mm"
   viewBox="0 0 50 44"
   version="1.1"
   id="svg119275"
   xml:space="preserve"
   inkscape:version="1.2.1 (9c6d41e4, 2022-07-14)"
   sodipodi:docname="logo.svg"
   xmlns:inkscape="http://www.inkscape.org/namespaces/inkscape"
   xmlns:sodipodi="http://sodipodi.sourceforge.net/DTD/sodipodi-0.dtd"
   xmlns="http://www.w3.org/2000/svg"
   xmlns:svg="http://www.w3.org/2000/svg"><sodipodi:namedview
     id="namedview119277"
     pagecolor="#ffffff"
     bordercolor="#000000"
     borderopacity="0.25"
     inkscape:showpageshadow="2"
     inkscape:pageopacity="0.0"
     inkscape:pagecheckerboard="0"
     inkscape:deskcolor="#d1d1d1"
     inkscape:document-units="mm"
     showgrid="false"
     inkscape:zoom="3.5454167"
     inkscape:cx="94.488189"
     inkscape:cy="64.026325"
     inkscape:window-width="1170"
     inkscape:window-height="1014"
     inkscape:window-x="491"
     inkscape:window-y="33"
     inkscape:window-maximized="0"
     inkscape:current-layer="layer1" /><defs
     id="defs119272" /><g
     inkscape:label="Layer 1"
     inkscape:groupmode="layer"
     id="layer1"><g
       id="g27640"><ellipse
         style="opacity:1;fill:#000000;fill-opacity:1;stroke:none;stroke-width:2.056;stroke-linecap:round;stroke-linejoin:round;stroke-miterlimit:0;stroke-dasharray:none;paint-order:fill markers stroke"
         id="path24554"
         cx="25.512003"
         cy="25.564604"
         rx="14.99159"
         ry="14.51817" /><ellipse
         style="opacity:1;fill:#000000;fill-opacity:1;stroke:none;stroke-width:2.09928;stroke-linecap:round;stroke-linejoin:round;stroke-miterlimit:0;stroke-dasharray:none;paint-order:fill markers stroke"
         id="ellipse24660"
         cx="25.512003"
         cy="25.564604"
         rx="15.307202"
         ry="14.823816" /><g
         id="g24402"><ellipse
           style="fill:#48609c;fill-opacity:1;stroke:none;stroke-width:2.11925;stroke-linecap:round;stroke-linejoin:round;stroke-miterlimit:0;stroke-dasharray:none;paint-order:fill markers stroke"
           id="ellipse20719"
           cx="-9.9151764"
           cy="-16.940138"
           transform="matrix(0.37514446,-0.92696636,-0.98744536,-0.15796092,0,0)"
           rx="5.6466875"
           ry="5.793931" /><ellipse
           style="fill:#9d6847;fill-opacity:1;stroke:none;stroke-width:2.11925;stroke-linecap:round;stroke-linejoin:round;stroke-miterlimit:0;stroke-dasharray:none;paint-order:fill markers stroke"
           id="ellipse20721"
           cx="-3.3208392"
           cy="-28.528843"
           transform="matrix(0.37514446,-0.92696636,-0.98744536,-0.15796092,0,0)"
           rx="5.6466875"
           ry="5.793931" /><ellipse
           style="fill:#9c4866;fill-opacity:1;stroke:none;stroke-width:2.11925;stroke-linecap:round;stroke-linejoin:round;stroke-miterlimit:0;stroke-dasharray:none;paint-order:fill markers stroke"
           id="ellipse20723"
           cx="-8.6490288"
           cy="-40.635715"
           transform="matrix(0.37514446,-0.92696636,-0.98744536,-0.15796092,0,0)"
           rx="5.6466875"
           ry="5.793931" /><ellipse
           style="fill:#85489c;fill-opacity:1;stroke:none;stroke-width:2.11925;stroke-linecap:round;stroke-linejoin:round;stroke-miterlimit:0;stroke-dasharray:none;paint-order:fill markers stroke"
           id="ellipse20725"
           cx="-18.871042"
           cy="-48.422153"
           transform="matrix(0.37514446,-0.92696636,-0.98744536,-0.15796092,0,0)"
           rx="5.6466875"
           ry="5.793931" /><ellipse
           style="fill:#47949c;fill-opacity:1;stroke:none;stroke-width:2.11926;stroke-linecap:round;stroke-linejoin:round;stroke-miterlimit:0;stroke-dasharray:none;paint-order:fill markers stroke"
           id="ellipse20645"
           cx="-22.557909"
           cy="-17.298265"
           transform="matrix(0.37514446,-0.92696636,-0.98744536,-0.15796092,0,0)"
           rx="5.6466875"
           ry="5.7939305" /></g><path
         id="path16513"
         style="fill:#ffffff;stroke:none;stroke-width:2.33882;stroke-linecap:round;stroke-linejoin:round;stroke-miterlimit:0;stroke-dasharray:none;paint-order:fill markers stroke"
         d="m 28.30192,0.46669393 a 6.6674722,8.3862149 63.755252 0 0 -9.274446,5.82117797 6.6674722,8.3862149 63.755252 0 0 -0.0121,0.033129 6.6674722,8.3862149 63.755252 0 0 -3.202436,-1.3635334 6.6674722,8.3862149 63.755252 0 0 -1.106918,-0.1014894 6.6674722,8.3862149 63.755252 0 0 -9.2744458,5.8211779 6.6674722,8.3862149 63.755252 0 0 1.4203254,6.657808 6.6674722,8.3862149 63.755252 0 0 -6.02363086,5.332135 6.6674722,8.3862149 63.755252 0 0 4.77105216,8.14334 6.6674722,8.3862149 63.755252 0 0 3.229781,-0.08729 17.671803,17.671803 0 0 0 10.0895151,10.701082 17.671803,17.671803 0 0 0 22.850359,-9.398021 6.6674722,8.3862149 63.755252 0 1 -0.02103,0.0042 6.6674722,8.3862149 63.755252 0 0 6.777176,-5.547736 6.6674722,8.3862149 63.755252 0 0 -4.771051,-8.143865 6.6674722,8.3862149 63.755252 0 0 -1.106918,-0.101488 6.6674722,8.3862149 63.755252 0 0 -0.267134,0.0011 A 6.6674722,8.3862149 63.755252 0 0 44.243112,15.45614 6.6674722,8.3862149 63.755252 0 0 39.472061,7.3122309 6.6674722,8.3862149 63.755252 0 0 38.365143,7.2107416 6.6674722,8.3862149 63.755252 0 0 34.437031,7.9448305 6.6674722,8.3862149 63.755252 0 0 29.408838,0.56818331 6.6674722,8.3862149 63.755252 0 0 28.30192,0.46669393 Z M 27.796051,2.5616869 a 4.681503,5.8883021 63.755258 0 1 0.777208,0.071516 4.681503,5.8883021 63.755258 0 1 3.350202,5.7175852 4.681503,5.8883021 63.755258 0 1 -7.289356,4.0159289 4.681503,5.8883021 63.755258 0 1 -3.350202,-5.7175849 4.681503,5.8883021 63.755258 0 1 6.512148,-4.0874452 z M 14.200156,6.9509708 a 4.681503,5.8883021 63.755258 0 1 0.777209,0.071516 4.681503,5.8883021 63.755258 0 1 3.3502,5.7175842 4.681503,5.8883021 63.755258 0 1 -7.289356,4.01593 4.681503,5.8883021 63.755258 0 1 -3.3502003,-5.717585 4.681503,5.8883021 63.755258 0 1 6.5121473,-4.0874452 z m 23.659118,2.3547638 a 4.681503,5.8883021 63.755258 0 1 0.777209,0.071516 4.681503,5.8883021 63.755258 0 1 3.350201,5.7175854 4.681503,5.8883021 63.755258 0 1 -7.289356,4.015929 4.681503,5.8883021 63.755258 0 1 -3.350201,-5.717585 4.681503,5.8883021 63.755258 0 1 6.512147,-4.0874454 z M 20.596615,13.067152 a 6.6674722,8.3862149 63.755252 0 0 3.201911,1.364059 6.6674722,8.3862149 63.755252 0 0 5.03503,-0.630496 6.6674722,8.3862149 63.755252 0 0 5.028193,7.374544 6.6674722,8.3862149 63.755252 0 0 1.369844,0.104644 6.6674722,8.3862149 63.755252 0 0 -1.858886,2.7786 6.6674722,8.3862149 63.755252 0 0 0.917086,6.169818 6.6674722,8.3862149 63.755252 0 1 -0.04522,-0.0447 c 0.277991,0.561137 0.760125,0.983547 1.516556,1.198941 a 6.6674722,8.3862149 63.755252 0 0 2.382634,0.819277 6.6674722,8.3862149 63.755252 0 0 0.689917,0.07993 c -3.522475,6.838714 -11.726645,9.958288 -18.965366,7.034319 -3.612163,-1.466337 -7.433447,-5.382554 -9.206085,-9.147717 a 6.6674722,8.3862149 63.755252 0 0 5.318463,-5.077097 6.6674722,8.3862149 63.755252 0 0 -1.38667,-6.626783 c -0.0016,-0.01269 -0.0036,-0.02525 -0.0058,-0.03786 a 6.6674722,8.3862149 63.755252 0 0 5.995761,-5.3253 6.6674722,8.3862149 63.755252 0 0 0.01262,-0.03418 z M 9.5968503,18.940914 a 4.681503,5.8883021 63.755258 0 1 0.7772087,0.07152 4.681503,5.8883021 63.755258 0 1 3.350201,5.717586 4.681503,5.8883021 63.755258 0 1 -7.2893558,4.015929 4.681503,5.8883021 63.755258 0 1 -3.350201,-5.717586 4.681503,5.8883021 63.755258 0 1 6.5121471,-4.087445 z m 32.5444337,1.391404 a 4.681503,5.8883021 63.755258 0 1 0.777209,0.07152 4.681503,5.8883021 63.755258 0 1 3.350201,5.717585 4.681503,5.8883021 63.755258 0 1 -7.289355,4.015929 4.681503,5.8883021 63.755258 0 1 -3.350202,-5.717585 4.681503,5.8883021 63.755258 0 1 6.512147,-4.087445 z m -7.642728,10.102663 a 6.6674722,8.3862149 63.755252 0 0 0.309201,0.28396 6.6674722,8.3862149 63.755252 0 1 -0.309201,-0.28396 z m 0.615773,0.526377 a 6.6674722,8.3862149 63.755252 0 0 0.252408,0.173005 6.6674722,8.3862149 63.755252 0 1 -0.252408,-0.173005 z m 4.428722,1.344077 a 6.6674722,8.3862149 63.755252 0 0 0.02629,0 6.6674722,8.3862149 63.755252 0 1 -0.02629,0 z" /></g></g></svg>
